<?xml version="1.0" encoding="utf-8"?>
<!-- Generator: Adobe Illustrator 25.4.1, SVG Export Plug-In . SVG Version: 6.00 Build 0)  -->
<svg version="1.1" id="Layer_1" xmlns="http://www.w3.org/2000/svg" xmlns:xlink="http://www.w3.org/1999/xlink" x="0px" y="0px"
	 viewBox="0 0 689.2 1453" style="enable-background:new 0 0 689.2 1453;" xml:space="preserve">
<style type="text/css">
	.st0{enable-background:new    ;}
	.st1{fill:#355070;}
</style>
<g id="Layer_2_00000159450187869025713800000009980984171187488680_">
	<g class="st0">
		<path class="st1" d="M349.3,1005c-81.2,0-145.9-21.1-194.2-63.2s-72.4-98.4-72.4-168.9h103.4c0,42.1,14.9,76,44.8,101.7
			s69.3,38.5,118.3,38.5c47.5,0,85.4-12.8,113.8-38.5s42.5-59.5,42.5-101.7c0-32.9-8.6-61.8-25.9-86.8
			c-17.2-24.9-40.8-41.9-70.7-51.1L285,596c-55.9-17.6-99.8-46.7-131.6-87.3c-31.8-40.6-47.7-87.7-47.7-141.3
			c0-68.2,22.4-122.6,67.2-163.2s104.4-60.9,178.7-60.9c74.3,0,133.7,20.3,178.1,60.9c44.4,40.6,66.6,95,66.6,163.2H492.9
			c0-40.6-12.8-72.8-38.5-96.5s-59.9-35.6-102.8-35.6c-43.7,0-78.7,11.9-105.1,35.6C220,294.6,206.8,326,206.8,365
			c0,30.6,8.8,57.1,26.4,79.3s41.8,38.3,72.4,48.2L434.3,534c52.8,16.8,94.8,46.7,125.8,89.6c31,42.9,46.5,92.7,46.5,149.4
			c0,70.5-23.4,126.8-70.1,168.9S427.4,1005,349.3,1005z"/>
	</g>
	<path class="st1" d="M316.4,801.6L342,708h16l25.5,93.6l19.6-93.6H425l-30.6,129h-20.7l-23.3-90.1L326.1,837h-20.7l-30.6-129h21.9
		L316.4,801.6z"/>
	<g class="st0">
		<path class="st1" d="M356.2,443.9c-9.1,0-17-1.7-23.6-5.1c-6.7-3.4-11.8-8.2-15.5-14.4c-3.6-6.2-5.5-13.5-5.5-22v-61
			c0-8.4,1.8-15.8,5.5-22c3.6-6.2,8.8-11,15.5-14.4c6.7-3.4,14.5-5.1,23.6-5.1c9,0,16.8,1.7,23.4,5.1c6.7,3.4,11.8,8.2,15.5,14.4
			c3.7,6.2,5.6,13.5,5.6,22h-24.2c0-6.5-1.8-11.5-5.3-15.1c-3.5-3.5-8.5-5.3-15.1-5.3s-11.6,1.7-15.2,5.2c-3.6,3.5-5.4,8.4-5.4,15
			v61.2c0,6.5,1.8,11.6,5.4,15.2c3.6,3.6,8.6,5.4,15.2,5.4s11.5-1.8,15.1-5.4c3.5-3.6,5.3-8.6,5.3-15.2v-14.2h-23.8v-20.7h48v34.9
			c0,8.4-1.9,15.8-5.6,22c-3.7,6.2-8.9,11-15.5,14.4C372.9,442.2,365.1,443.9,356.2,443.9z"/>
	</g>
</g>
</svg>
